<svg width="143" height="28" viewBox="0 0 143 28" fill="none" xmlns="http://www.w3.org/2000/svg">
<rect x="2.65" y="7.10734" width="8.7" height="8.7" stroke="#A020F0" stroke-width="1.3"/>
<rect x="2.65" y="18.1073" width="8.7" height="3.7" stroke="#A020F0" stroke-width="1.3"/>
<rect x="13" y="3.95734" width="1" height="21" fill="#A224F0"/>
<rect x="24.35" y="21.8073" width="8.7" height="8.7" transform="rotate(180 24.35 21.8073)" stroke="#A020F0" stroke-width="1.3"/>
<rect x="24.35" y="10.8073" width="8.7" height="3.7" transform="rotate(180 24.35 10.8073)" stroke="#A020F0" stroke-width="1.3"/>
<path d="M29.8809 24.5573V11.1973H31.8609V13.3973H31.6409C31.8543 12.6773 32.2743 12.104 32.9009 11.6773C33.5276 11.2373 34.2676 11.0173 35.1209 11.0173C35.9876 11.0173 36.7409 11.224 37.3809 11.6373C38.0343 12.0507 38.5343 12.6307 38.8809 13.3773C39.2409 14.124 39.4209 15.024 39.4209 16.0773C39.4209 17.104 39.2409 18.004 38.8809 18.7773C38.5343 19.5373 38.0409 20.124 37.4009 20.5373C36.7609 20.9373 36.0009 21.1373 35.1209 21.1373C34.2809 21.1373 33.5476 20.924 32.9209 20.4973C32.2943 20.0707 31.8743 19.504 31.6609 18.7973H31.9009V24.5573H29.8809ZM34.6209 19.5773C35.4609 19.5773 36.1276 19.2773 36.6209 18.6773C37.1276 18.0773 37.3809 17.2107 37.3809 16.0773C37.3809 14.9307 37.1276 14.064 36.6209 13.4773C36.1276 12.8907 35.4609 12.5973 34.6209 12.5973C33.7943 12.5973 33.1276 12.8907 32.6209 13.4773C32.1143 14.064 31.8609 14.9307 31.8609 16.0773C31.8609 17.2107 32.1143 18.0773 32.6209 18.6773C33.1276 19.2773 33.7943 19.5773 34.6209 19.5773ZM46.2773 21.1373C45.2107 21.1373 44.2907 20.9373 43.5173 20.5373C42.7573 20.124 42.164 19.544 41.7373 18.7973C41.324 18.0373 41.1173 17.1373 41.1173 16.0973C41.1173 15.084 41.324 14.1973 41.7373 13.4373C42.1507 12.6773 42.7173 12.084 43.4373 11.6573C44.1573 11.2307 44.9773 11.0173 45.8973 11.0173C46.804 11.0173 47.5773 11.2173 48.2173 11.6173C48.8707 12.004 49.3707 12.5573 49.7173 13.2773C50.064 13.9973 50.2373 14.8573 50.2373 15.8573V16.5373H42.7173V15.2973H48.8773L48.5373 15.5773C48.5373 14.5773 48.3173 13.804 47.8773 13.2573C47.4373 12.7107 46.804 12.4373 45.9773 12.4373C45.3507 12.4373 44.8173 12.584 44.3773 12.8773C43.9507 13.1707 43.624 13.5773 43.3973 14.0973C43.1707 14.6173 43.0573 15.224 43.0573 15.9173V16.0373C43.0573 16.8107 43.1773 17.464 43.4173 17.9973C43.6707 18.5173 44.0373 18.9107 44.5173 19.1773C44.9973 19.444 45.5907 19.5773 46.2973 19.5773C46.8573 19.5773 47.404 19.4907 47.9373 19.3173C48.484 19.1307 48.9973 18.844 49.4773 18.4573L50.0773 19.8573C49.6373 20.2573 49.0707 20.5707 48.3773 20.7973C47.684 21.024 46.984 21.1373 46.2773 21.1373ZM52.4395 20.9573V11.1973H54.3995V13.5373H54.1995C54.4129 12.7373 54.7929 12.1307 55.3395 11.7173C55.8995 11.304 56.6395 11.064 57.5595 10.9973L58.2195 10.9573L58.3595 12.6773L57.1395 12.7973C56.2729 12.8773 55.6129 13.1507 55.1595 13.6173C54.7062 14.084 54.4795 14.724 54.4795 15.5373V20.9573H52.4395ZM59.9005 24.5573V11.1973H61.8805V13.3973H61.6605C61.8738 12.6773 62.2938 12.104 62.9205 11.6773C63.5471 11.2373 64.2871 11.0173 65.1405 11.0173C66.0071 11.0173 66.7605 11.224 67.4005 11.6373C68.0538 12.0507 68.5538 12.6307 68.9005 13.3773C69.2605 14.124 69.4405 15.024 69.4405 16.0773C69.4405 17.104 69.2605 18.004 68.9005 18.7773C68.5538 19.5373 68.0605 20.124 67.4205 20.5373C66.7805 20.9373 66.0205 21.1373 65.1405 21.1373C64.3005 21.1373 63.5671 20.924 62.9405 20.4973C62.3138 20.0707 61.8938 19.504 61.6805 18.7973H61.9205V24.5573H59.9005ZM64.6405 19.5773C65.4805 19.5773 66.1471 19.2773 66.6405 18.6773C67.1471 18.0773 67.4005 17.2107 67.4005 16.0773C67.4005 14.9307 67.1471 14.064 66.6405 13.4773C66.1471 12.8907 65.4805 12.5973 64.6405 12.5973C63.8138 12.5973 63.1471 12.8907 62.6405 13.4773C62.1338 14.064 61.8805 14.9307 61.8805 16.0773C61.8805 17.2107 62.1338 18.0773 62.6405 18.6773C63.1471 19.2773 63.8138 19.5773 64.6405 19.5773ZM74.8969 21.1373C73.8302 21.1373 73.0302 20.8373 72.4969 20.2373C71.9769 19.624 71.7169 18.744 71.7169 17.5973V6.85734H73.7369V17.4773C73.7369 17.904 73.7969 18.2707 73.9169 18.5773C74.0369 18.8707 74.2169 19.0907 74.4569 19.2373C74.6969 19.384 74.9969 19.4573 75.3569 19.4573C75.5169 19.4573 75.6702 19.4507 75.8169 19.4373C75.9635 19.424 76.1035 19.3973 76.2369 19.3573L76.1969 20.9773C75.9702 21.0307 75.7502 21.0707 75.5369 21.0973C75.3235 21.124 75.1102 21.1373 74.8969 21.1373ZM82.3125 21.1373C81.2458 21.1373 80.3258 20.9373 79.5525 20.5373C78.7925 20.124 78.1992 19.544 77.7725 18.7973C77.3592 18.0373 77.1525 17.1373 77.1525 16.0973C77.1525 15.084 77.3592 14.1973 77.7725 13.4373C78.1858 12.6773 78.7525 12.084 79.4725 11.6573C80.1925 11.2307 81.0125 11.0173 81.9325 11.0173C82.8392 11.0173 83.6125 11.2173 84.2525 11.6173C84.9058 12.004 85.4058 12.5573 85.7525 13.2773C86.0992 13.9973 86.2725 14.8573 86.2725 15.8573V16.5373H78.7525V15.2973H84.9125L84.5725 15.5773C84.5725 14.5773 84.3525 13.804 83.9125 13.2573C83.4725 12.7107 82.8392 12.4373 82.0125 12.4373C81.3858 12.4373 80.8525 12.584 80.4125 12.8773C79.9858 13.1707 79.6592 13.5773 79.4325 14.0973C79.2058 14.6173 79.0925 15.224 79.0925 15.9173V16.0373C79.0925 16.8107 79.2125 17.464 79.4525 17.9973C79.7058 18.5173 80.0725 18.9107 80.5525 19.1773C81.0325 19.444 81.6258 19.5773 82.3325 19.5773C82.8925 19.5773 83.4392 19.4907 83.9725 19.3173C84.5192 19.1307 85.0325 18.844 85.5125 18.4573L86.1125 19.8573C85.6725 20.2573 85.1058 20.5707 84.4125 20.7973C83.7192 21.024 83.0192 21.1373 82.3125 21.1373ZM87.0966 20.9573L91.5566 15.4173V16.4173L87.3566 11.1973H89.7166L92.6966 14.9973H91.9766L94.9566 11.1973H97.3166L93.1166 16.3773V15.4773L97.5766 20.9573H95.1766L91.9766 16.9173H92.6566L89.4766 20.9573H87.0966ZM98.9002 8.93734V6.83734H101.26V8.93734H98.9002ZM99.0802 20.9573V11.1973H101.1V20.9573H99.0802ZM108.363 24.7373C107.483 24.7373 106.663 24.6307 105.903 24.4173C105.143 24.204 104.47 23.884 103.883 23.4573L104.503 22.0173C104.89 22.2707 105.283 22.484 105.683 22.6573C106.097 22.844 106.51 22.9773 106.923 23.0573C107.35 23.1373 107.783 23.1773 108.223 23.1773C109.157 23.1773 109.857 22.9373 110.323 22.4573C110.79 21.9907 111.023 21.2973 111.023 20.3773V18.3373H111.203C111.003 19.0707 110.583 19.6507 109.943 20.0773C109.303 20.504 108.563 20.7173 107.723 20.7173C106.843 20.7173 106.077 20.5173 105.423 20.1173C104.77 19.704 104.263 19.1373 103.903 18.4173C103.543 17.684 103.363 16.8307 103.363 15.8573C103.363 14.884 103.543 14.0373 103.903 13.3173C104.263 12.5973 104.77 12.0373 105.423 11.6373C106.077 11.224 106.843 11.0173 107.723 11.0173C108.577 11.0173 109.317 11.2307 109.943 11.6573C110.583 12.084 110.997 12.664 111.183 13.3973H111.023V11.1973H112.983V20.1373C112.983 21.1507 112.81 21.9973 112.463 22.6773C112.117 23.3707 111.597 23.884 110.903 24.2173C110.223 24.564 109.377 24.7373 108.363 24.7373ZM108.203 19.1373C109.07 19.1373 109.75 18.844 110.243 18.2573C110.75 17.6707 111.003 16.8707 111.003 15.8573C111.003 14.8573 110.75 14.064 110.243 13.4773C109.75 12.8907 109.07 12.5973 108.203 12.5973C107.35 12.5973 106.67 12.8907 106.163 13.4773C105.657 14.064 105.403 14.8573 105.403 15.8573C105.403 16.8707 105.657 17.6707 106.163 18.2573C106.67 18.844 107.35 19.1373 108.203 19.1373ZM115.818 20.9573V11.1973H117.778V13.5373H117.578C117.792 12.7373 118.172 12.1307 118.718 11.7173C119.278 11.304 120.018 11.064 120.938 10.9973L121.598 10.9573L121.738 12.6773L120.518 12.7973C119.652 12.8773 118.992 13.1507 118.538 13.6173C118.085 14.084 117.858 14.724 117.858 15.5373V20.9573H115.818ZM123.099 8.93734V6.83734H125.459V8.93734H123.099ZM123.279 20.9573V11.1973H125.299V20.9573H123.279ZM131.863 21.1373C131.009 21.1373 130.256 20.9373 129.603 20.5373C128.963 20.124 128.463 19.5373 128.103 18.7773C127.743 18.004 127.563 17.104 127.563 16.0773C127.563 15.024 127.743 14.124 128.103 13.3773C128.463 12.6307 128.963 12.0507 129.603 11.6373C130.256 11.224 131.009 11.0173 131.863 11.0173C132.716 11.0173 133.449 11.2307 134.063 11.6573C134.689 12.0707 135.109 12.6307 135.323 13.3373H135.103V6.85734H137.123V20.9573H135.143V18.7573H135.343C135.129 19.4773 134.709 20.0573 134.083 20.4973C133.469 20.924 132.729 21.1373 131.863 21.1373ZM132.383 19.5773C133.209 19.5773 133.876 19.2773 134.383 18.6773C134.889 18.0773 135.143 17.2107 135.143 16.0773C135.143 14.9307 134.889 14.064 134.383 13.4773C133.876 12.8907 133.209 12.5973 132.383 12.5973C131.543 12.5973 130.869 12.8907 130.363 13.4773C129.856 14.064 129.603 14.9307 129.603 16.0773C129.603 17.2107 129.856 18.0773 130.363 18.6773C130.869 19.2773 131.543 19.5773 132.383 19.5773Z" fill="#A020F0"/>
</svg>
