<svg width="16" height="16" viewBox="0 0 16 16" fill="none" xmlns="http://www.w3.org/2000/svg">
<path d="M8.00007 2C6.95912 1.99965 5.93598 2.27012 5.0312 2.78485C4.12641 3.29957 3.37111 4.04083 2.83949 4.9358C2.30788 5.83077 2.01825 6.84864 1.99907 7.88942C1.97988 8.93019 2.2318 9.95805 2.73007 10.872L2.02007 13.362C1.99508 13.4494 1.99442 13.542 2.01814 13.6298C2.04187 13.7176 2.08908 13.7972 2.1547 13.8602C2.22033 13.9231 2.30187 13.967 2.39057 13.9871C2.47926 14.0071 2.57175 14.0026 2.65807 13.974L4.99607 13.195C5.79293 13.6555 6.68504 13.9265 7.60338 13.987C8.52173 14.0475 9.44169 13.896 10.2921 13.5441C11.1425 13.1922 11.9006 12.6494 12.5077 11.9577C13.1147 11.266 13.5545 10.4439 13.7931 9.555C14.0316 8.6661 14.0624 7.73425 13.8832 6.83153C13.704 5.92882 13.3195 5.07943 12.7594 4.34908C12.1994 3.61873 11.4789 3.027 10.6536 2.61967C9.82834 2.21233 8.92041 2.00031 8.00007 2ZM6.00007 7C6.00007 6.86739 6.05275 6.74022 6.14651 6.64645C6.24028 6.55268 6.36746 6.5 6.50007 6.5H9.50007C9.63268 6.5 9.75985 6.55268 9.85362 6.64645C9.94739 6.74022 10.0001 6.86739 10.0001 7C10.0001 7.13261 9.94739 7.25979 9.85362 7.35355C9.75985 7.44732 9.63268 7.5 9.50007 7.5H6.50007C6.36746 7.5 6.24028 7.44732 6.14651 7.35355C6.05275 7.25979 6.00007 7.13261 6.00007 7ZM6.50007 8.5H8.50007C8.63268 8.5 8.75985 8.55268 8.85362 8.64645C8.94739 8.74021 9.00007 8.86739 9.00007 9C9.00007 9.13261 8.94739 9.25979 8.85362 9.35355C8.75985 9.44732 8.63268 9.5 8.50007 9.5H6.50007C6.36746 9.5 6.24028 9.44732 6.14651 9.35355C6.05275 9.25979 6.00007 9.13261 6.00007 9C6.00007 8.86739 6.05275 8.74021 6.14651 8.64645C6.24028 8.55268 6.36746 8.5 6.50007 8.5Z" fill="black"/>
</svg>
