<svg width="18" height="20" viewBox="0 0 18 20" fill="none" xmlns="http://www.w3.org/2000/svg">
<path d="M17.25 9.49998V18.5C17.25 18.8978 17.092 19.2793 16.8107 19.5606C16.5294 19.8419 16.1478 20 15.75 20H2.25C1.85218 20 1.47064 19.8419 1.18934 19.5606C0.908035 19.2793 0.75 18.8978 0.75 18.5V9.49998C0.75 9.10215 0.908035 8.72062 1.18934 8.43932C1.47064 8.15802 1.85218 7.99998 2.25 7.99998H4.5C4.69891 7.99998 4.88968 8.079 5.03033 8.21965C5.17098 8.3603 5.25 8.55107 5.25 8.74998C5.25 8.94889 5.17098 9.13966 5.03033 9.28031C4.88968 9.42096 4.69891 9.49998 4.5 9.49998H2.25V18.5H15.75V9.49998H13.5C13.3011 9.49998 13.1103 9.42096 12.9697 9.28031C12.829 9.13966 12.75 8.94889 12.75 8.74998C12.75 8.55107 12.829 8.3603 12.9697 8.21965C13.1103 8.079 13.3011 7.99998 13.5 7.99998H15.75C16.1478 7.99998 16.5294 8.15802 16.8107 8.43932C17.092 8.72062 17.25 9.10215 17.25 9.49998ZM5.78063 5.53061L8.25 3.06029V11.75C8.25 11.9489 8.32902 12.1397 8.46967 12.2803C8.61032 12.421 8.80109 12.5 9 12.5C9.19891 12.5 9.38968 12.421 9.53033 12.2803C9.67098 12.1397 9.75 11.9489 9.75 11.75V3.06029L12.2194 5.53061C12.3601 5.67134 12.551 5.7504 12.75 5.7504C12.949 5.7504 13.1399 5.67134 13.2806 5.53061C13.4214 5.38987 13.5004 5.199 13.5004 4.99998C13.5004 4.80096 13.4214 4.61009 13.2806 4.46935L9.53063 0.719355C9.46097 0.649622 9.37825 0.594303 9.2872 0.55656C9.19616 0.518817 9.09856 0.49939 9 0.49939C8.90144 0.49939 8.80384 0.518817 8.71279 0.55656C8.62175 0.594303 8.53903 0.649622 8.46937 0.719355L4.71937 4.46935C4.57864 4.61009 4.49958 4.80096 4.49958 4.99998C4.49958 5.199 4.57864 5.38987 4.71938 5.5306C4.86011 5.67133 5.05098 5.7504 5.25 5.7504C5.44902 5.7504 5.63989 5.67134 5.78063 5.53061Z" fill="black"/>
</svg>
